<?xml version="1.0" standalone="no"?>
<!DOCTYPE svg PUBLIC "-//W3C//DTD SVG 20010904//EN"
 "http://www.w3.org/TR/2001/REC-SVG-20010904/DTD/svg10.dtd">
<svg version="1.0" xmlns="http://www.w3.org/2000/svg"
 width="1000.000000pt" height="1000.000000pt" viewBox="0 0 1000.000000 1000.000000"
 preserveAspectRatio="xMidYMid meet">
<metadata>
Created by potrace 1.14, written by Peter Selinger 2001-2017
</metadata>
<g transform="translate(0.000000,1000.000000) scale(0.100000,-0.100000)"
fill="#000000" stroke="none">
<path d="M4735 8109 c-38 -4 -95 -10 -125 -13 -68 -8 -85 -10 -242 -41 -374
-74 -766 -237 -1083 -448 -81 -54 -232 -163 -245 -177 -3 -3 -36 -32 -75 -64
-69 -59 -282 -270 -339 -337 -178 -207 -385 -537 -489 -779 -50 -117 -80 -198
-112 -300 -52 -167 -54 -172 -59 -203 -3 -15 -7 -35 -10 -45 -11 -37 -50 -259
-60 -340 -24 -207 -25 -611 0 -734 2 -13 7 -43 10 -68 36 -291 143 -644 278
-920 166 -339 357 -605 620 -865 354 -350 785 -612 1241 -754 167 -52 209 -64
265 -75 14 -3 50 -10 80 -16 55 -10 63 -12 150 -25 25 -4 52 -9 60 -10 143
-27 704 -26 800 0 8 3 33 7 55 10 93 12 107 14 162 25 929 188 1739 804 2166
1645 74 144 128 274 181 428 27 79 91 320 101 379 3 18 8 44 10 58 14 67 14
68 34 245 20 178 18 502 -3 665 -24 180 -42 274 -82 430 -39 148 -48 177 -101
319 -31 84 -61 152 -121 281 -40 84 -121 224 -198 340 -297 448 -702 810
-1179 1056 -281 144 -620 257 -899 300 -21 3 -47 7 -57 9 -10 2 -49 7 -86 10
-37 4 -72 10 -77 13 -15 8 -493 9 -571 1z"/>
</g>
</svg>
