<?xml version="1.0" standalone="no"?>
<!DOCTYPE svg PUBLIC "-//W3C//DTD SVG 20010904//EN"
 "http://www.w3.org/TR/2001/REC-SVG-20010904/DTD/svg10.dtd">
<svg version="1.0" xmlns="http://www.w3.org/2000/svg"
 width="625.000000pt" height="625.000000pt" viewBox="0 0 625.000000 625.000000"
 preserveAspectRatio="xMidYMid meet">
<metadata>
Created by potrace 1.14, written by Peter Selinger 2001-2017
</metadata>
<g transform="translate(0.000000,625.000000) scale(0.100000,-0.100000)"
fill="#000000" stroke="none">
<path d="M2918 6245 c-1 -1 -40 -6 -86 -9 -46 -4 -89 -9 -95 -11 -7 -2 -34 -6
-62 -9 -27 -3 -60 -8 -71 -10 -12 -2 -39 -7 -60 -11 -66 -10 -244 -56 -354
-90 -398 -126 -776 -336 -1095 -608 -112 -96 -304 -295 -399 -413 -356 -443
-592 -991 -662 -1536 -3 -24 -7 -54 -10 -68 -8 -46 -17 -244 -17 -365 0 -566
155 -1121 449 -1607 51 -84 120 -188 151 -228 258 -330 471 -535 758 -732 61
-42 126 -85 145 -96 19 -11 69 -39 110 -62 242 -139 636 -284 880 -325 19 -3
42 -8 50 -10 21 -6 67 -14 120 -21 25 -3 52 -7 60 -9 99 -26 655 -26 786 -1
12 2 45 7 74 11 29 4 62 9 74 11 12 2 37 7 56 10 135 21 446 113 577 170 17 8
34 14 37 14 10 0 284 135 346 171 415 237 784 583 1056 990 46 70 84 129 84
131 0 3 22 43 48 89 186 323 315 729 369 1159 10 84 10 607 0 685 -23 173 -54
339 -83 450 -3 11 -6 25 -8 30 -54 226 -196 554 -350 808 -57 95 -210 314
-235 337 -4 3 -31 34 -60 70 -105 125 -334 344 -451 430 -18 14 -45 34 -59 46
-79 64 -322 213 -466 286 -292 149 -693 269 -1010 304 -33 3 -69 8 -80 11 -22
5 -511 13 -517 8z"/>
</g>
</svg>
